<svg width="16" height="16" viewBox="0 0 16 16" fill="none" xmlns="http://www.w3.org/2000/svg">
<path fill-rule="evenodd" clip-rule="evenodd" d="M2.16663 5.36649C1.81685 5.36649 1.5333 5.65004 1.5333 5.99983V12.6665C1.5333 13.0163 1.81685 13.2998 2.16663 13.2998H12.8333C13.1831 13.2998 13.4666 13.0163 13.4666 12.6665V5.99983C13.4666 5.65004 13.1831 5.36649 12.8333 5.36649H2.16663ZM0.133301 5.99983C0.133301 4.87685 1.04366 3.96649 2.16663 3.96649H12.8333C13.9563 3.96649 14.8666 4.87685 14.8666 5.99983V12.6665C14.8666 13.7895 13.9563 14.6998 12.8333 14.6998H2.16663C1.04366 14.6998 0.133301 13.7895 0.133301 12.6665V5.99983Z" fill="#3F3F3F"/>
<path fill-rule="evenodd" clip-rule="evenodd" d="M4.72885 1.89554C5.11017 1.51421 5.62736 1.29999 6.16663 1.29999H8.8333C9.37257 1.29999 9.88976 1.51421 10.2711 1.89554C10.6524 2.27686 10.8666 2.79405 10.8666 3.33332V14C10.8666 14.3866 10.5532 14.7 10.1666 14.7C9.78003 14.7 9.46663 14.3866 9.46663 14V3.33332C9.46663 3.16535 9.39991 3.00426 9.28113 2.88549C9.16236 2.76671 9.00127 2.69999 8.8333 2.69999H6.16663C5.99866 2.69999 5.83757 2.76671 5.7188 2.88549C5.60003 3.00426 5.5333 3.16535 5.5333 3.33332V14C5.5333 14.3866 5.2199 14.7 4.8333 14.7C4.4467 14.7 4.1333 14.3866 4.1333 14V3.33332C4.1333 2.79405 4.34753 2.27686 4.72885 1.89554Z" fill="#3F3F3F"/>
</svg>
