<svg width="16" height="16" viewBox="0 0 16 16" fill="none" xmlns="http://www.w3.org/2000/svg">
<g clip-path="url(#clip0_2_4152)">
<path fill-rule="evenodd" clip-rule="evenodd" d="M7.4998 1.36667C6.09416 1.36667 4.74608 1.92507 3.75214 2.91901C2.7582 3.91295 2.1998 5.26103 2.1998 6.66667C2.1998 8.71865 3.53582 10.7147 5.00797 12.2686C5.72973 13.0304 6.45387 13.6543 6.99835 14.0878C7.19164 14.2417 7.36156 14.3711 7.4998 14.4736C7.63804 14.3711 7.80797 14.2417 8.00126 14.0878C8.54574 13.6543 9.26988 13.0304 9.99164 12.2686C11.4638 10.7147 12.7998 8.71865 12.7998 6.66667C12.7998 5.26103 12.2414 3.91295 11.2475 2.91901C10.2535 1.92507 8.90545 1.36667 7.4998 1.36667ZM7.4998 15.3333C7.11151 15.9158 7.11134 15.9157 7.11114 15.9155L7.11063 15.9152L7.10919 15.9142L7.10469 15.9112L7.08929 15.9008C7.07623 15.8919 7.05763 15.8792 7.03386 15.8627C6.98634 15.8298 6.91812 15.7819 6.83215 15.7198C6.66028 15.5957 6.41707 15.4146 6.12626 15.183C5.54574 14.7208 4.76988 14.0529 3.99164 13.2314C2.46379 11.6187 0.799805 9.28137 0.799805 6.66667C0.799805 4.88972 1.5057 3.18555 2.76219 1.92906C4.01868 0.672565 5.72285 -0.0333252 7.4998 -0.0333252C9.27676 -0.0333252 10.9809 0.672566 12.2374 1.92906C13.4939 3.18555 14.1998 4.88972 14.1998 6.66667C14.1998 9.28137 12.5358 11.6187 11.008 13.2314C10.2297 14.0529 9.45387 14.7208 8.87335 15.183C8.58254 15.4146 8.33933 15.5957 8.16746 15.7198C8.08149 15.7819 8.01327 15.8298 7.96575 15.8627C7.94198 15.8792 7.92338 15.8919 7.91032 15.9008L7.89492 15.9112L7.89042 15.9142L7.88898 15.9152L7.88847 15.9155C7.88827 15.9157 7.88809 15.9158 7.4998 15.3333ZM7.4998 15.3333L7.88809 15.9158C7.65297 16.0725 7.34664 16.0725 7.11151 15.9158L7.4998 15.3333Z" fill="#3F3F3F"/>
<path fill-rule="evenodd" clip-rule="evenodd" d="M7.4998 5.36667C6.78183 5.36667 6.1998 5.9487 6.1998 6.66667C6.1998 7.38465 6.78183 7.96667 7.4998 7.96667C8.21778 7.96667 8.7998 7.38465 8.7998 6.66667C8.7998 5.9487 8.21778 5.36667 7.4998 5.36667ZM4.7998 6.66667C4.7998 5.17551 6.00864 3.96667 7.4998 3.96667C8.99097 3.96667 10.1998 5.17551 10.1998 6.66667C10.1998 8.15784 8.99097 9.36667 7.4998 9.36667C6.00864 9.36667 4.7998 8.15784 4.7998 6.66667Z" fill="#3F3F3F"/>
</g>
<defs>
<clipPath id="clip0_2_4152">
<rect width="16" height="16" fill="white"/>
</clipPath>
</defs>
</svg>
